<?xml version="1.0" encoding="utf-8"?>
<!-- Generator: Adobe Illustrator 24.2.1, SVG Export Plug-In . SVG Version: 6.00 Build 0)  -->
<svg version="1.1" id="Layer_1" xmlns="http://www.w3.org/2000/svg" xmlns:xlink="http://www.w3.org/1999/xlink" x="0px" y="0px"
	 viewBox="0 0 469.7 233.16" style="enable-background:new 0 0 469.7 233.16;" xml:space="preserve">
<style type="text/css">
	.st0{fill:#F15B22;}
</style>
<path class="st0" d="M1.5,60.92C1.5,39.49,1.13,21.06,0,4.14h28.96l1.13,35.73h1.5C39.86,15.42,59.79,0,81.98,0
	c3.76,0,6.39,0.38,9.4,1.13v31.21c-3.38-0.75-6.77-1.13-11.28-1.13c-23.32,0-39.86,17.68-44.38,42.5c-0.75,4.51-1.5,9.78-1.5,15.42
	v97.03H1.5V60.92z"/>
<path class="st0" d="M139.14,101.16c0.75,44.75,29.33,63.18,62.43,63.18c23.69,0,37.98-4.14,50.39-9.4l5.64,23.69
	c-11.66,5.26-31.59,11.28-60.55,11.28c-56.03,0-89.5-36.85-89.5-91.76C107.55,43.25,139.9,0,192.92,0
	c59.42,0,75.21,52.27,75.21,85.74c0,6.77-0.75,12.03-1.13,15.42H139.14z M236.17,77.47c0.38-21.06-8.65-53.78-45.88-53.78
	c-33.47,0-48.14,30.84-50.77,53.78H236.17z"/>
<path class="st0" d="M469.7,214.36v18.8H281.67v-18.8H469.7z"/>
</svg>
